{"title":"The Equalizer 2014 CAM XviD READNFO-INFERNO","uid":11162622,"size":1564444614,"categoryP":"video","categoryS":"movies","magnet":"?xt=urn:btih:415cb6a0fa79a8264f70d1e452b221e6cdfc96a3&amp;dn=The+Equalizer+2014+CAM+XviD+READNFO-INFERNO&amp;tr=udp%3A%2F%2Ftracker.openbittorrent.com%3A80&amp;tr=udp%3A%2F%2Fopen.demonii.com%3A1337&amp;tr=udp%3A%2F%2Ftracker.coppersurfer.tk%3A6969&amp;tr=udp%3A%2F%2Fexodus.desync.com%3A6969","seeders":3,"leechers":0,"uploader":"ali1997a","files":5,"time":1412575627,"description":"SilverTorrent - Clean And Verified Torrents Download\n &lt;a href=&quot;\nhttp://i.imgur.com/ky6BGho.png&quot; rel=&quot;nofollow&quot; target=&quot;_NEW&quot;&gt;\nhttp://i.imgur.com/ky6BGho.png&lt;/a&gt;\n &lt;a href=&quot;\nhttp://i.imgur.com/oEBPRhG.jpg&quot; rel=&quot;nofollow&quot; target=&quot;_NEW&quot;&gt;\nhttp://i.imgur.com/oEBPRhG.jpg&lt;/a&gt;\n\nThe Equalizer 2014 CAM XviD READNFO-INFERNO\n\niMDB:http://www.imdb.com/title/tt0455944/\n\nFormat                                   : AVI\nFormat/Info                              : Audio Video Interleave\nFile size                                : 1.45 GiB\nDuration                                 : 2h 6mn\nOverall bit rate                         : 1 650 Kbps\nWriting library                          : VirtualDub build 35491/release\n\nVideo\nID                                       : 0\nFormat                                   : MPEG-4 Visual\nFormat profile                           : Advanced Simple@L5\nFormat settings, BVOP                    : 2\nFormat settings, QPel                    : No\nFormat settings, GMC                     : No warppoints\nFormat settings, Matrix                  : Default (H.263)\nMuxing mode                              : Packed bitstream\nCodec ID                                 : XVID\nCodec ID/Hint                            : XviD\nDuration                                 : 2h 6mn\nBit rate                                 : 1 499 Kbps\nWidth                                    : 720 pixels\nHeight                                   : 304 pixels\nDisplay aspect ratio                     : 2.35:1\nFrame rate                               : 59.880 fps\nColor space                              : YUV\nChroma subsampling                       : 4:2:0\nBit depth                                : 8 bits\nScan type                                : Progressive\nCompression mode                         : Lossy\nBits/(Pixel*Frame)                       : 0.114\nStream size                              : 1.32 GiB (91%)\nWriting library                          : XviD 64\n\nAudio\nID                                       : 1\nFormat                                   : MPEG Audio\nFormat version                           : Version 1\nFormat profile                           : Layer 3\nMode                                     : Joint stereo\nMode extension                           : MS Stereo\nCodec ID                                 : 55\nCodec ID/Hint                            : MP3\nDuration                                 : 2h 6mn\nBit rate mode                            : Constant\nBit rate                                 : 128 Kbps\nChannel count                            : 2 channels\nSampling rate                            : 48.0 KHz\nCompression mode                         : Lossy\nStream size                              : 115 MiB (8%)\nAlignment                                : Split accross interleaves\nInterleave, duration                     : 17 ms (1.00 video frame)\nInterleave, preload duration             : 500 ms\n\nWORKDONE:\n\nPretty decent video, but dark in places. So we couldnt do a whole lot since we didnt have source files. Cut beginning intro off with watermark out. Also cut video up into parts to fix cam movements. Filters used: Rotate, MSU Denoiser, MSU sharpen, Levels, Resize, perspective\n\nAudio: Clean it up... get rit of noise, more bass, adjusted equalizer to help with echo.\n\nENJOY\n\n &lt;a href=&quot;\nhttp://i.imgur.com/CLax75c.png&quot; rel=&quot;nofollow&quot; target=&quot;_NEW&quot;&gt;\nhttp://i.imgur.com/CLax75c.png&lt;/a&gt;\n &lt;a href=&quot;\nhttp://i.imgur.com/u1iZ64D.png&quot; rel=&quot;nofollow&quot; target=&quot;_NEW&quot;&gt;\nhttp://i.imgur.com/u1iZ64D.png&lt;/a&gt;\n\nFollow us On:\n\nWe are on FaceBook, Post Your Request, Suggestions etc\n\n","torrent":{"xt":"urn:btih:415cb6a0fa79a8264f70d1e452b221e6cdfc96a3","amp;dn":"The+Equalizer+2014+CAM+XviD+READNFO-INFERNO","amp;tr":["udp%3A%2F%2Ftracker.openbittorrent.com%3A80","udp%3A%2F%2Fopen.demonii.com%3A1337","udp%3A%2F%2Ftracker.coppersurfer.tk%3A6969","udp%3A%2F%2Fexodus.desync.com%3A6969"],"infoHash":"415cb6a0fa79a8264f70d1e452b221e6cdfc96a3","infoHashBuffer":{"type":"Buffer","data":[65,92,182,160,250,121,168,38,79,112,209,228,82,178,33,230,205,252,150,163]},"announce":[],"urlList":[]}}